<?xml version="1.0" encoding="iso-8859-1"?>
<!-- Generator: Adobe Illustrator 18.0.0, SVG Export Plug-In . SVG Version: 6.00 Build 0)  -->
<!DOCTYPE svg PUBLIC "-//W3C//DTD SVG 1.1//EN" "http://www.w3.org/Graphics/SVG/1.1/DTD/svg11.dtd">
<svg version="1.1" id="Capa_1" xmlns="http://www.w3.org/2000/svg" xmlns:xlink="http://www.w3.org/1999/xlink" x="0px" y="0px"
	 viewBox="0 0 238.168 238.168" style="enable-background:new 0 0 238.168 238.168;" xml:space="preserve">
<path d="M42.918,45.417v147.334c0,1.381,1.119,2.5,2.5,2.5H192.75c1.381,0,2.5-1.119,2.5-2.5V45.417c0-1.381-1.119-2.5-2.5-2.5
	H45.418C44.037,42.917,42.918,44.036,42.918,45.417z M64.084,64.084h110v110h-110V64.084z M77.917,160.251h82.334V77.917H77.917
	V160.251z M119.084,94.084c13.807,0,25,11.192,25,25s-11.193,25-25,25c-13.808,0-25-11.192-25-25S105.276,94.084,119.084,94.084z
	 M68.584,36.834V14.975c-1.834-1.559-3-3.879-3-6.475c0-4.695,3.805-8.5,8.5-8.5c4.695,0,8.5,3.805,8.5,8.5
	c0,2.596-1.167,4.916-3,6.475v21.859H68.584z M98.584,36.834V14.975c-1.834-1.559-3-3.879-3-6.475c0-4.695,3.805-8.5,8.5-8.5
	c4.695,0,8.5,3.805,8.5,8.5c0,2.596-1.167,4.916-3,6.475v21.859H98.584z M128.584,36.834V14.975c-1.834-1.559-3-3.879-3-6.475
	c0-4.695,3.805-8.5,8.5-8.5c4.695,0,8.5,3.805,8.5,8.5c0,2.596-1.166,4.916-3,6.475v21.859H128.584z M158.584,36.834V14.975
	c-1.834-1.559-3-3.879-3-6.475c0-4.695,3.805-8.5,8.5-8.5c4.695,0,8.5,3.805,8.5,8.5c0,2.596-1.166,4.916-3,6.475v21.859H158.584z
	 M169.584,201.334v21.859c1.834,1.559,3,3.879,3,6.475c0,4.695-3.805,8.5-8.5,8.5c-4.695,0-8.5-3.805-8.5-8.5
	c0-2.596,1.166-4.916,3-6.475v-21.859H169.584z M139.584,201.334v21.859c1.834,1.559,3,3.879,3,6.475c0,4.695-3.805,8.5-8.5,8.5
	c-4.695,0-8.5-3.805-8.5-8.5c0-2.596,1.166-4.916,3-6.475v-21.859H139.584z M109.584,201.334v21.859c1.833,1.559,3,3.879,3,6.475
	c0,4.695-3.805,8.5-8.5,8.5c-4.695,0-8.5-3.805-8.5-8.5c0-2.596,1.166-4.916,3-6.475v-21.859H109.584z M79.584,201.334v21.859
	c1.833,1.559,3,3.879,3,6.475c0,4.695-3.805,8.5-8.5,8.5c-4.695,0-8.5-3.805-8.5-8.5c0-2.596,1.166-4.916,3-6.475v-21.859H79.584z
	 M201.334,68.584h21.859c1.559-1.833,3.879-3,6.475-3c4.695,0,8.5,3.805,8.5,8.5s-3.805,8.5-8.5,8.5c-2.596,0-4.916-1.166-6.475-3
	h-21.859V68.584z M238.168,104.084c0,4.695-3.805,8.5-8.5,8.5c-2.596,0-4.916-1.166-6.475-3h-21.859v-11h21.859
	c1.559-1.833,3.879-3,6.475-3C234.363,95.584,238.168,99.389,238.168,104.084z M238.168,134.084c0,4.695-3.805,8.5-8.5,8.5
	c-2.596,0-4.916-1.167-6.475-3h-21.859v-11h21.859c1.559-1.833,3.879-3,6.475-3C234.363,125.584,238.168,129.389,238.168,134.084z
	 M223.193,169.584h-21.859v-11h21.859c1.559-1.833,3.879-3,6.475-3c4.695,0,8.5,3.805,8.5,8.5s-3.805,8.5-8.5,8.5
	C227.072,172.584,224.752,171.417,223.193,169.584z M0,164.084c0-4.695,3.805-8.5,8.5-8.5c2.596,0,4.916,1.167,6.475,3h21.859v11
	H14.975c-1.559,1.833-3.879,3-6.475,3C3.805,172.584,0,168.779,0,164.084z M0,134.084c0-4.695,3.805-8.5,8.5-8.5
	c2.596,0,4.916,1.167,6.475,3h21.859v11H14.975c-1.559,1.833-3.879,3-6.475,3C3.805,142.584,0,138.779,0,134.084z M0,104.084
	c0-4.695,3.805-8.5,8.5-8.5c2.596,0,4.916,1.167,6.475,3h21.859v11H14.975c-1.559,1.834-3.879,3-6.475,3
	C3.805,112.584,0,108.779,0,104.084z M0,74.084c0-4.695,3.805-8.5,8.5-8.5c2.596,0,4.916,1.167,6.475,3h21.859v11H14.975
	c-1.559,1.834-3.879,3-6.475,3C3.805,82.584,0,78.779,0,74.084z"/>
<g>
</g>
<g>
</g>
<g>
</g>
<g>
</g>
<g>
</g>
<g>
</g>
<g>
</g>
<g>
</g>
<g>
</g>
<g>
</g>
<g>
</g>
<g>
</g>
<g>
</g>
<g>
</g>
<g>
</g>
</svg>
