<?xml version="1.0" encoding="UTF-8"?>
<svg width="73px" height="73px" viewBox="0 0 73 73" version="1.1" xmlns="http://www.w3.org/2000/svg" xmlns:xlink="http://www.w3.org/1999/xlink">
    <!-- Generator: Sketch 42 (36781) - http://www.bohemiancoding.com/sketch -->
    <title>Page 1</title>
    <desc>Created with Sketch.</desc>
    <defs></defs>
    <g id="Page-1" stroke="none" stroke-width="1" fill="none" fill-rule="evenodd">
        <g id="Assets" transform="translate(-75.000000, -51.000000)">
            <g id="Page-1" transform="translate(76.000000, 52.000000)">
                <path d="M35.4299281,0 C54.9987346,0 70.8640791,15.8611216 70.8640791,35.4299281 C70.8640791,54.9945118 54.9987346,70.8598562 35.4299281,70.8598562 C15.8611216,70.8598562 0,54.9945118 0,35.4299281 C0,15.8611216 15.8611216,0 35.4299281,0" id="Fill-1" fill="#FFFFFF"></path>
                <path d="M35.4299281,0 C54.9987346,0 70.8640791,15.8611216 70.8640791,35.4299281 C70.8640791,54.9945118 54.9987346,70.8598562 35.4299281,70.8598562 C15.8611216,70.8598562 0,54.9945118 0,35.4299281 C0,15.8611216 15.8611216,0 35.4299281,0 Z" id="Stroke-3" stroke="#1C425B" stroke-width="1.47"></path>
                <path d="M14.6176471,40.8310327 L43.4176601,4.17647059 C44.0553144,5.44333333 43.4176601,6.16122222 43.1685105,6.92133987 C40.5503275,14.1002288 37.9701503,21.3213464 35.2295039,28.4580065 C34.5538438,30.2738431 34.8452222,30.6961307 36.7455163,30.6961307 L55.2881641,30.6961307 C55.7906863,30.6961307 56.4663464,30.4427582 56.7619477,30.991732 C57.0617719,31.5407059 56.4241176,31.9629935 56.1285163,32.385281 L32.5226405,63.6345621 C32.1425817,64.1413072 31.7667458,64.9014248 31.0868627,64.521366 C30.4112026,64.1413072 30.8377131,63.3811895 31.0868627,62.7477582 C32.9026993,56.1178431 34.6340784,49.4879281 36.5343725,42.8580131 C37.0031118,41.295549 36.5343725,40.957719 35.1028176,40.9999477 L17.4934255,40.9999477 L14.6176471,40.8310327 Z" id="Fill-5" fill="#1C425B"></path>
            </g>
        </g>
    </g>
</svg>