<svg xmlns="http://www.w3.org/2000/svg" width="512" height="512" viewBox="0 0 383.99997 383.99999"><g fill="none" stroke="#fff" stroke-width="12.465" stroke-linecap="round" stroke-linejoin="round"><path fill="#000" stroke="#000" stroke-width="32.261" d="M278.828 279.71c2.444-20.36 1.71-23.347 16.877-20.05l3.85.34c11.66.53 26.915-1.876 35.877-6.04 19.29-8.95 30.73-23.896 11.708-19.97-43.39 8.952-46.374-5.74-46.374-5.74 45.82-67.983 64.972-154.28 48.44-175.405-45.093-57.62-123.15-30.372-124.455-29.665l-.41.077c-8.57-1.78-18.17-2.842-28.94-3.016-19.63-.32-34.53 5.15-45.84 13.72 0 0-139.24-57.36-132.76 72.15 1.38 27.55 39.49 208.48 84.95 153.83 16.62-19.98 32.67-36.88 32.67-36.88 7.98 5.3 17.52 8 27.53 7.03l.78-.66c-.24 2.48-.13 4.91.31 7.78-11.71 13.09-8.27 15.38-31.68 20.2-23.69 4.89-9.77 13.58-.69 15.85 11.02 2.76 36.5 6.66 53.72-17.44l-.68 2.75c4.6 3.68 4.29 26.42 4.94 42.67.657 16.25 1.74 31.41 5.056 40.35 3.31 8.94 7.22 31.96 37.99 25.37 25.716-5.51 45.378-13.44 47.17-87.22" stroke-linecap="butt" stroke-linejoin="miter"/><path fill="#336791" stroke="none" stroke-width="10.754" d="M347.145 233.99c-43.396 8.95-46.38-5.742-46.38-5.742 45.82-67.987 64.973-154.287 48.444-175.41-45.1-57.613-123.16-30.364-124.46-29.658l-.42.075c-8.58-1.78-18.17-2.84-28.96-3.016-19.64-.33-34.53 5.14-45.83 13.71 0 0-139.25-57.37-132.77 72.14 1.37 27.55 39.49 208.47 84.95 153.83 16.61-19.99 32.67-36.88 32.67-36.88 7.97 5.29 17.51 8 27.52 7.03l.77-.66c-.25 2.48-.13 4.9.31 7.78-11.71 13.08-8.27 15.38-31.68 20.2-23.69 4.88-9.78 13.57-.69 15.84 11.01 2.75 36.5 6.65 53.72-17.45l-.69 2.75c4.59 3.67 7.81 23.9 7.27 42.24-.54 18.34-.9 30.93 2.71 40.76 3.615 9.83 7.22 31.96 37.994 25.36 25.715-5.51 39.04-19.79 40.895-43.61 1.32-16.936 4.296-14.43 4.48-29.573l2.39-7.17c2.756-22.954.44-30.36 16.28-26.915l3.85.336c11.66.53 26.926-1.877 35.88-6.04 19.29-8.95 30.73-23.897 11.71-19.97z"/><path stroke-width="10.754" d="M186.227 247.15c-1.195 42.716.3 85.73 4.48 96.185 4.182 10.454 13.133 30.788 43.91 24.195 25.715-5.513 35.07-16.18 39.13-39.73 2.99-17.323 8.755-65.437 9.494-75.296m-133.9-219.5S10-23.946 16.47 105.564c1.378 27.552 39.494 208.482 84.953 153.832 16.612-19.986 31.636-35.66 31.636-35.66M224.6 22.61c-4.823 1.51 77.512-30.1 124.303 29.69 16.53 21.123-2.625 107.422-48.443 175.41"/><path stroke-width="10.754" d="M300.462 227.71s2.985 14.698 46.382 5.74c19.013-3.926 7.57 11.02-11.713 19.977-15.82 7.345-51.3 9.227-51.88-.923-1.49-26.187 18.68-18.23 17.22-24.793-1.31-5.9-10.33-11.7-16.3-26.17-5.21-12.62-71.43-109.43 18.37-95.05 3.29-.68-23.42-85.41-107.45-86.78-84.01-1.38-81.25 103.32-81.25 103.32" stroke-linejoin="bevel"/><path stroke-width="10.754" d="M162.708 236.667c-11.713 13.084-8.268 15.38-31.68 20.202-23.69 4.88-9.772 13.57-.688 15.84 11.015 2.75 36.498 6.66 53.716-17.45 5.244-7.34-.03-19.06-7.233-22.04-3.48-1.44-8.134-3.25-14.115 3.44z"/><path stroke-width="10.754" d="M161.94 236.438c-1.18-7.692 2.53-16.846 6.502-27.556 5.972-16.068 19.75-32.14 8.728-83.11-8.215-37.985-63.318-7.906-63.353-2.756-.033 5.15 2.493 26.106-.92 50.51-4.453 31.844 20.263 58.777 48.724 56.02"/><path fill="#fff" stroke-width="3.585" d="M148.83 122.244c-.25 1.76 3.22 6.453 7.743 7.08 4.516.63 8.38-3.038 8.626-4.795.24-1.76-3.22-3.7-7.75-4.33-4.52-.63-8.39.29-8.63 2.04z" stroke-linecap="butt" stroke-linejoin="miter"/><path fill="#fff" stroke-width="1.793" d="M286.364 118.658c.245 1.76-3.22 6.453-7.743 7.08-4.51.63-8.38-3.038-8.63-4.796-.24-1.76 3.23-3.696 7.75-4.326 4.52-.63 8.39.287 8.63 2.043z" stroke-linecap="butt" stroke-linejoin="miter"/><path stroke-width="10.754" d="M302.527 106.485c.744 13.797-2.972 23.196-3.44 37.884-.694 21.35 10.178 45.78-6.204 70.25"/></g></svg>